<svg version="1.1" xmlns="http://www.w3.org/2000/svg" viewBox="0 0 2048 2048" width="1024" height="1024" preserveAspectRatio="none">
<defs>

	<linearGradient id="Gradient1" gradientUnits="userSpaceOnUse" x1="1392.37" y1="1002.46" x2="1393.27" y2="988.886">
		<stop class="stop0" offset="0" stop-opacity="1" stop-color="rgb(214,171,108)"/>
		<stop class="stop1" offset="1" stop-opacity="1" stop-color="rgb(255,214,144)"/>
	</linearGradient>
	<linearGradient id="Gradient2" gradientUnits="userSpaceOnUse" x1="655.158" y1="1020.33" x2="654.294" y2="1007.59">
		<stop class="stop0" offset="0" stop-opacity="1" stop-color="rgb(214,168,109)"/>
		<stop class="stop1" offset="1" stop-opacity="1" stop-color="rgb(255,215,146)"/>
	</linearGradient>
	<linearGradient id="Gradient3" gradientUnits="userSpaceOnUse" x1="1400.43" y1="1028.58" x2="1401.42" y2="1013.44">
		<stop class="stop0" offset="0" stop-opacity="1" stop-color="rgb(226,180,113)"/>
		<stop class="stop1" offset="1" stop-opacity="1" stop-color="rgb(255,217,147)"/>
	</linearGradient>

<mask id="hole-mask">
<rect width="2048" height="2048" fill="white"/>
<path transform="translate(0,0)" fill="black" d="M 1074.66 819.019 C 1092.83 831.278 1111.11 843.372 1129.5 855.3 C 1136.65 859.996 1152.78 870.17 1158.7 875.56 L 1155.23 875.009 C 1147.42 875.297 1134.04 877.19 1125.78 878.045 C 1114.45 866.241 1068.46 832.827 1053.58 822.255 C 1059.61 822.054 1065.67 821.152 1071.67 820.406 L 1074.66 819.019 z"/>

<path transform="translate(0,0)" fill="black" d="M 1074.66 819.019 C 1092.83 831.278 1111.11 843.372 1129.5 855.3 C 1136.65 859.996 1152.78 870.17 1158.7 875.56 L 1155.23 875.009 C 1147.64 869.258 1076.02 821.792 1071.67 820.406 L 1074.66 819.019 z"/>

<path transform="translate(0,0)" fill="black" d="M 900.704 826.163 C 925.23 826.413 949.756 826.467 974.282 826.326 L 973.743 888.955 L 957.25 888.892 L 881.899 888.966 C 887.379 868.924 894.729 846.463 900.704 826.163 z"/>

<path transform="translate(0,0)" fill="black" d="M 998.675 827.008 C 1012.4 827.011 1026.12 827.105 1039.84 827.289 C 1055.47 839.377 1071.47 850.771 1087.22 862.688 C 1088.31 863.517 1086.74 866.84 1086.21 867.909 C 1082.93 874.638 1084.39 879.798 1085.46 886.942 C 1090.48 887.123 1099.91 887.907 1104.54 886.419 C 1105.8 886.013 1106.15 883.169 1106.67 881.395 L 1108.26 882.467 C 1110.22 885.262 1111.45 887.601 1113.08 890.568 C 1079.63 891.452 1039.42 890.268 1005.36 890.008 C 1004.59 871.988 1000.91 845.271 998.675 827.008 z"/>

<path transform="translate(0,0)" fill="black" d="M 805.695 821.478 C 830.558 821.207 854.701 821.885 879.687 821.157 C 872.881 838.646 865.933 857.972 857.961 874.737 C 856.921 876.637 856.864 876.584 855.495 878.285 C 848.633 880.232 809.305 879.441 799.427 879.395 L 787.254 868.554 C 790.952 855.686 800.039 834.065 805.695 821.478 z"/>

<path transform="translate(0,0)" fill="black" d="M 1004.29 997.481 L 1088.85 997.139 C 1086.79 999.591 1084.43 1002.16 1082.29 1004.58 C 1067.05 1005.01 1050.58 1004.77 1035.25 1004.84 L 982.043 1005.21 C 973.001 1005.29 962.129 1005.73 953.176 1004.68 C 951.012 1004.43 948.476 1000.05 947.066 998.023 L 1004.29 997.481 z"/>

<path transform="translate(0,0)" fill="black" d="M 853.446 784.883 L 928.204 784.912 L 927.934 797.228 C 905.347 798.165 876.622 797.276 853.551 797.191 L 853.446 784.883 z"/>

<path transform="translate(0,0)" fill="black" d="M 946.091 784.258 L 986.992 784.237 C 987.041 789.288 987.272 792.498 986.291 797.503 L 946.065 797.205 L 946.091 784.258 z"/>

<path transform="translate(0,0)" fill="black" d="M 1274 897.776 L 1279.55 898.256 C 1285.89 902.56 1284.22 906.377 1282.33 912.937 C 1275.99 908.813 1269.65 905.503 1274 897.776 z"/>

<path transform="translate(0,0)" fill="black" d="M 462.078 1198.09 L 460.792 1205.04 C 457.662 1212.58 456.224 1217.66 452.385 1225.23 L 452.1 1224.52 C 454.786 1214.35 457.12 1207.49 462.078 1198.09 z"/>

<path transform="translate(0,0)" fill="black" d="M 468.859 1065.07 C 463.215 1063.58 458.712 1062.73 453.761 1059.52 L 453.746 1058.66 C 459.465 1059 465.479 1061.78 470.975 1063.86 L 468.859 1065.07 z"/>

<path transform="translate(0,0)" fill="black" d="M 465.479 1193.48 L 466.671 1191.81 C 469.484 1194.81 469.355 1200.11 473.746 1206.1 L 472.851 1206.88 C 468.746 1202.04 467.341 1199.43 465.479 1193.48 z"/>

<path transform="translate(0,0)" fill="black" d="M 644.643 1085.42 C 653.563 1084.65 672.361 1084.4 678.579 1091.37 C 684.701 1107.47 645.992 1132 634.594 1138.5 L 615.326 1149.09 C 619.827 1138.09 638.681 1103.53 634.99 1094.31 C 631.738 1091.08 628.284 1090.09 624.013 1088.3 C 631.513 1086.89 637.029 1086.18 644.643 1085.42 z"/>

<path transform="translate(0,0)" fill="black" d="M 606.162 1168.55 C 619.011 1159.76 631.325 1153.72 645.373 1147.32 C 649.818 1145.3 651.852 1141.24 657.058 1138.83 L 657.614 1139.47 C 656.077 1141.7 655.4 1142.52 654.778 1145.23 C 652.961 1148.4 650.04 1152.92 646.054 1153.53 C 642.061 1156.92 639.219 1159.17 634.032 1160.57 L 633.374 1160.98 C 630.488 1161.09 629.606 1160.34 626.955 1159.1 C 619.983 1162.64 613.627 1166.11 606.162 1168.55 z"/>

<path transform="translate(0,0)" fill="black" d="M 634.032 1160.57 C 637.4 1156.87 641.367 1154.97 646.054 1153.53 C 642.061 1156.92 639.219 1159.17 634.032 1160.57 z"/>

<path transform="translate(0,0)" fill="black" d="M 570.41 1206.76 C 571.234 1210.9 558.635 1239.01 556.283 1244.22 C 556.45 1235.94 566.45 1214.46 570.41 1206.76 z"/>

<path transform="translate(0,0)" fill="black" d="M 344.359 1223.57 C 341.405 1230.91 341.428 1233.41 337.554 1241.3 L 337.107 1241.03 C 339.688 1230.33 341.233 1223.37 346.967 1214 C 346.47 1217.14 346.231 1221.27 344.359 1223.57 z"/>

<path transform="translate(0,0)" fill="black" d="M 602.494 1141.74 C 604.211 1141.89 603.306 1141.61 605.056 1142.98 C 601.549 1146.77 601.775 1146.3 600.417 1151.62 L 600.119 1152.83 L 599.045 1154.64 L 598.559 1153.33 C 599.648 1147.72 599.838 1146.76 602.494 1141.74 z"/>

<path transform="translate(0,0)" fill="black" d="M 1219.87 993.468 C 1229.69 990.876 1240.14 993.77 1247.23 1001.04 C 1254.32 1008.31 1256.94 1018.84 1254.1 1028.59 C 1251.26 1038.33 1243.39 1045.8 1233.5 1048.12 C 1218.5 1051.65 1203.46 1042.47 1199.73 1027.52 C 1196 1012.57 1204.97 997.399 1219.87 993.468 z"/>

<path transform="translate(0,0)" fill="black" d="M 1225.69 1111.97 L 1226.31 1113.39 C 1222.73 1124.98 1208.35 1166.17 1201.82 1176.38 L 1200.94 1175.45 C 1199.72 1170.17 1221.3 1120.41 1225.69 1111.97 z"/>

<path transform="translate(0,0)" fill="black" d="M 1139.79 1156.78 C 1139.96 1158.46 1121.29 1206.44 1118.66 1212.25 C 1116.92 1204.87 1135.54 1165.21 1139.79 1156.78 z"/>

<path transform="translate(0,0)" fill="black" d="M 839.823 1005.39 C 855.083 1001.81 870.35 1011.3 873.888 1026.57 C 877.426 1041.84 867.89 1057.08 852.61 1060.58 C 837.389 1064.06 822.221 1054.57 818.696 1039.36 C 815.172 1024.15 824.621 1008.95 839.823 1005.39 z"/>

<path transform="translate(0,0)" fill="black" d="M 858.597 1125.71 L 859.351 1126.44 C 860.374 1129.93 858.088 1146.06 857.853 1152.09 L 840.374 1157.83 L 839.639 1156.64 L 858.597 1125.71 z"/>

<path transform="translate(0,0)" fill="black" d="M 825.354 1156.13 C 823.507 1158.61 823.669 1158.59 821.097 1160.24 C 821.86 1156.4 827.894 1148.85 830.676 1145.99 C 828.9 1149.62 827.381 1152.64 825.354 1156.13 z"/>

<path transform="translate(0,0)" fill="black" d="M 865.621 1180.38 C 869.632 1186.96 863.678 1211.08 862.579 1220.81 L 861.813 1220.57 C 863.212 1205.97 863.203 1195.34 865.621 1180.38 z"/>

<path transform="translate(0,0)" fill="black" d="M 296.914 1097.79 C 298.055 1099.02 297.983 1098.76 298.683 1100.51 C 317.947 1148.8 258.25 1248.13 215.741 1266.73 C 211.155 1259.89 211.514 1251.58 212.204 1243.63 C 215.775 1202.47 231.517 1166.02 253.157 1131.49 C 256.156 1133.25 259.99 1135.05 263.154 1136.65 C 274.428 1126.05 286.521 1110 296.914 1097.79 z"/>

<path transform="translate(0,0)" fill="black" d="M 303.069 1161.77 C 305.039 1169.72 293.494 1191.9 289.483 1199.25 C 289.023 1196.65 301.237 1167.11 303.069 1161.77 z"/>

<path transform="translate(0,0)" fill="black" d="M 220.405 1156.72 C 221.646 1164.96 220.524 1165.63 217.119 1173.55 C 215.588 1172.65 216.167 1172.88 215.049 1170.99 C 215.874 1166.02 218.325 1161.37 220.405 1156.72 z"/>

<path transform="translate(0,0)" fill="black" d="M 213.485 1172.68 C 214.781 1178.1 209.589 1190.03 207.771 1197.4 C 205.481 1191.27 211.058 1179.28 213.485 1172.68 z"/>

<path transform="translate(0,0)" fill="black" d="M 308.112 1137.62 L 309.197 1138.62 C 309.891 1144.63 307.563 1152.45 305.846 1158.28 L 305.226 1157.9 C 304.417 1155.37 307.439 1141.32 308.112 1137.62 z"/>

<path transform="translate(0,0)" fill="black" d="M 769.609 1092.83 L 770.372 1093.67 C 781.641 1139.86 748.383 1192.86 712.228 1218.76 C 707.954 1221.83 702.214 1227.42 696.821 1226.71 C 687.237 1199 717.054 1144.19 730.865 1119.99 C 732.723 1121.1 735.986 1123.08 738.02 1122.75 C 747.27 1121.25 763.868 1099.48 769.609 1092.83 z"/>

<path transform="translate(0,0)" fill="black" d="M 779.443 1127.71 C 781.224 1136.7 767.964 1169.11 761.35 1176.11 C 761.38 1174.75 761.188 1174.65 761.742 1173.64 C 770.176 1158.26 773.938 1143.64 779.443 1127.71 z"/>

<path transform="translate(0,0)" fill="black" d="M 705.577 1135.65 C 705.856 1136.56 706.135 1137.47 706.414 1138.38 C 701.661 1149.13 695.168 1159.71 690.873 1170.72 L 690.402 1172.14 L 689.507 1172.45 C 690.073 1163.84 700.979 1143.28 705.577 1135.65 z"/>

<path transform="translate(0,0)" fill="black" d="M 973.146 1083.26 C 1020.76 1081.25 1023.83 1100.58 996.723 1135.52 C 984.741 1150.96 970.677 1161.76 955.949 1174.28 C 949.158 1179.72 943.945 1183.31 936.662 1188.14 C 941.389 1178.45 946.122 1163.83 950.726 1152.84 C 957.609 1136.41 966.858 1119.15 972.876 1102.7 C 974.643 1097.87 970.978 1091.54 968.216 1087.5 L 967.37 1086.29 C 968.927 1083.8 969.442 1084.4 973.146 1083.26 z"/>

<path transform="translate(0,0)" fill="black" d="M 998.868 1155.83 C 999.536 1156.49 999.173 1156.01 999.49 1157.53 C 990.159 1169.82 978.023 1179.13 966.645 1189.71 C 970.976 1187.47 977.463 1183.42 981.784 1182.25 C 981.672 1182.51 942.334 1210.79 939.444 1212.8 C 936.078 1214.76 928.669 1219.65 925.297 1219.84 C 927.606 1216.94 943.174 1208.62 948.815 1203.29 C 965.259 1187.75 983.187 1172.07 998.868 1155.83 z"/>

<path transform="translate(0,0)" fill="black" d="M 927.606 1163.74 C 928.566 1167.96 918.294 1191.76 915.719 1196.25 C 914.416 1191.07 924.875 1169.81 927.606 1163.74 z"/>

<path transform="translate(0,0)" fill="black" d="M 1444.04 1102.65 C 1445.15 1107.02 1428.49 1132.89 1424.71 1140.46 L 1423.96 1138.36 C 1427.3 1127.2 1438.14 1114.37 1444.04 1102.65 z"/>

<path transform="translate(0,0)" fill="black" d="M 1452.54 1206.04 C 1452.89 1206.32 1453.24 1206.6 1453.59 1206.88 C 1449.73 1211.18 1444.49 1212.65 1439.05 1213.97 L 1437.59 1212.56 C 1439.32 1210.76 1449.31 1207.44 1452.54 1206.04 z"/>

<path transform="translate(0,0)" fill="black" d="M 1788.33 1207.87 L 1789.43 1208.52 C 1785.04 1212.33 1773.92 1217.66 1768.39 1219.69 L 1767.42 1219.65 L 1767.35 1218.25 C 1774.36 1214.84 1781.36 1211.38 1788.33 1207.87 z"/>

<path transform="translate(0,0)" fill="black" d="M 1288.66 1205.94 L 1290.2 1206.21 L 1290.69 1207.31 C 1286.12 1209.14 1279.57 1210.96 1278.13 1215.56 C 1277.55 1217.41 1277.86 1216.88 1276.26 1217.9 L 1272.78 1215.84 C 1268.35 1218 1271.25 1219.68 1266.01 1222.12 L 1263.47 1220.98 L 1261.62 1222 C 1258.08 1223.7 1258.09 1223.66 1254.2 1224.34 C 1256.43 1221.53 1284.11 1207.71 1288.66 1205.94 z"/>

<path transform="translate(0,0)" fill="black" d="M 1618.16 1139.69 L 1619.23 1140.52 C 1618.34 1144.99 1609.69 1165.92 1607.28 1172.36 C 1599.71 1192.59 1594.87 1214.32 1588.28 1234.15 C 1587.78 1234.08 1587.55 1233.46 1587.22 1233.08 C 1594.23 1199.82 1605.18 1170.83 1618.16 1139.69 z"/>

<path transform="translate(0,0)" fill="black" d="M 1596.86 1135.83 C 1593 1139.11 1578.98 1144.04 1574 1145.01 C 1578.33 1139.66 1590.09 1137.6 1596.86 1135.83 z"/>

<path transform="translate(0,0)" fill="black" d="M 1648.52 1121.23 C 1650.54 1121.12 1651.16 1121.29 1653.18 1121.51 C 1650.31 1123.66 1645.19 1124.66 1641.46 1125.74 L 1637.2 1126.11 L 1636.83 1125.07 C 1641.5 1122.38 1643.16 1122.27 1648.52 1121.23 z"/>

<path transform="translate(0,0)" fill="black" d="M 1196.71 829.301 C 1185.97 828.764 1175.7 824.765 1167.43 817.903 C 1157.62 809.699 1151.64 797.812 1150.89 785.052 C 1149.99 772.682 1154.3 760.497 1162.79 751.457 C 1171.19 742.489 1182.67 737.049 1194.93 736.242 L 1198.58 736.478 C 1225.97 738.405 1246.06 758.253 1243.74 786.456 C 1242.65 799.148 1236.35 810.823 1226.35 818.707 C 1218.86 824.673 1208.42 828.821 1198.76 829.064 C 1199.33 824.696 1201.02 818.971 1197.45 815.879 L 1196.1 817.141 C 1194.74 821.371 1195.9 824.809 1196.71 829.301 z"/>

<path transform="translate(0,0)" fill="black" d="M 1093.6 1148.77 C 1093.73 1150.76 1081.65 1184.7 1079.8 1191.42 C 1076.34 1184.22 1090.24 1156.03 1093.6 1148.77 z"/>

<path transform="translate(0,0)" fill="black" d="M 1108.55 1126.77 C 1109.16 1131.42 1101.35 1148.79 1100.38 1157.09 L 1099.15 1157.5 C 1097.75 1148.39 1104.66 1134.94 1108.55 1126.77 z"/>

<path transform="translate(0,0)" fill="black" d="M 1094.6 1154.74 L 1095.7 1156.56 C 1094.92 1162.36 1092.88 1169.52 1091.4 1175.35 L 1090.77 1174.77 C 1089.72 1171.49 1093.55 1158.8 1094.6 1154.74 z"/>

<path transform="translate(0,0)" fill="black" d="M 1388.62 1121.85 L 1389.08 1122.31 C 1389.28 1126.85 1379.3 1143.55 1377.89 1157.39 L 1377.02 1157.47 L 1376.11 1156.17 C 1377.07 1145.94 1383.5 1130.74 1388.62 1121.85 z"/>

<path transform="translate(0,0)" fill="black" d="M 1364.92 1168.4 C 1363.3 1174.4 1362.18 1179.51 1359.33 1185.05 C 1359.31 1175.95 1364.97 1160.33 1369.06 1151.93 C 1367.79 1157.8 1366.54 1162.62 1364.92 1168.4 z"/>

<path transform="translate(0,0)" fill="black" d="M 1588.51 1276.06 C 1599.67 1275.58 1626.49 1278.28 1638.58 1279.01 L 1638.63 1279.31 C 1628.03 1279.61 1579.7 1280.3 1570.46 1278.19 C 1576.72 1277.67 1582.67 1278.72 1588.91 1277.48 L 1588.51 1276.06 z"/>

<path transform="translate(0,0)" fill="black" d="M 417.747 1314.5 C 413.371 1316.04 401.078 1315.09 394.319 1316.55 C 402.122 1313.6 407.889 1313.12 416.022 1312.37 L 415.679 1313.69 L 417.747 1314.5 z"/>

</mask>
</defs>
<g mask="url(#hole-mask)">
<path transform="translate(0,0)" fill="rgb(250,212,143)" d="M 837.485 784.142 C 830.894 784.216 805.946 785.962 802.969 781.779 C 802.544 777.408 801.81 778.871 803.763 776.36 C 809.909 774.706 829.104 775.817 836.646 775.854 L 900.46 775.944 L 973.167 775.71 C 981.94 775.677 1013.73 773.893 1019 778.762 C 1018.23 786.23 1007.42 784.996 1002.04 784.804 C 1001.85 789.324 1001.8 791.594 1002.24 796.079 C 1003.91 797.352 1011.74 797.632 1015.19 798.276 C 1017.98 800.39 1019.81 806.651 1020.2 806.73 C 1040.08 810.72 1055.48 810.615 1074.66 819.019 C 1092.83 831.278 1111.11 843.372 1129.5 855.3 C 1136.65 859.996 1152.78 870.17 1158.7 875.56 C 1180.32 876.538 1203.99 880.893 1225.51 884.458 C 1245.15 866.009 1266.04 848.111 1286.12 830.112 C 1297.73 819.709 1310.19 809.553 1320.98 798.336 C 1344.61 820.325 1379.02 855.192 1400.96 879.126 C 1407.7 873.45 1412.88 868.533 1419.21 862.358 C 1430.54 869.761 1557.26 970.853 1557.66 972.765 C 1545.24 966.438 1531.03 956.4 1519.46 948.436 L 1451.61 901.392 C 1442.03 894.811 1430.24 886.031 1420.44 880.471 L 1419.25 879.805 C 1416.1 882.394 1412.87 885.822 1409.96 888.744 C 1421.92 903.396 1434.38 917.631 1447.32 931.427 C 1433.84 923.315 1420.4 908.331 1408.51 897.845 C 1379.36 872.138 1350.5 842.865 1320.79 818.049 C 1290.57 840.746 1258.97 862.292 1228.45 884.656 C 1254.14 891.319 1270.05 890.256 1297.6 900.935 L 1299.3 919.717 L 1285.02 918.844 C 1290.87 926.574 1292.51 926.419 1301.65 929.672 C 1301.83 958.024 1306.31 998.772 1273.31 954.37 C 1269.9 949.783 1266.19 945.186 1262.7 940.631 C 1235.52 931.173 1203.72 929.701 1176.25 938.504 C 1167.27 956.579 1150.87 984.514 1144.92 1001.88 C 1132.54 1000.85 1121.66 1000.99 1109.27 1001.06 C 1104.09 1008.94 1100.4 1013.66 1093.32 1019.76 C 1081.92 1021.7 1049.72 1021.04 1036.55 1020.93 C 1004.71 1020.66 971.252 1021.34 939.621 1019.75 C 936.645 1014.42 932.929 1008.59 929.721 1003.32 C 921.858 1002.45 918.664 999.639 914.289 993.132 C 904.675 978.832 896.382 962.218 888.201 947.082 C 861.903 938.397 830.387 937.767 804.05 946.731 C 795.994 960.244 789.302 976.871 780.62 991.837 C 775.984 990.643 771.173 988.934 766.547 987.675 C 735.068 979.101 734.146 986.812 735.087 953.777 C 740.198 953.226 746.728 953.146 751.966 952.936 C 752.017 946.458 751.801 940.674 751.499 934.203 C 744.681 941.693 741.941 943.091 731.681 943.775 C 719.799 944.568 716.86 940.674 707.827 935.448 C 704.723 933.653 705.685 934.501 704.631 931.104 C 706.365 924.995 705.785 929.828 709.722 924.536 C 709.35 924.425 706.444 923.607 706.067 923.239 C 699.609 916.927 705.794 914.186 710.155 911.383 L 710.433 910.04 C 706.039 909.788 705.054 910.52 703.672 906.368 C 705.08 898.146 708.212 901.208 711.662 896.381 C 706.923 894.655 707.573 897.427 703.894 894.516 L 703.579 891.266 C 705.382 887.229 706.283 887.967 710.619 884.884 L 710.405 883.146 C 707.674 882.488 706.177 882.259 703.447 881.876 C 700.1 872.468 708.207 874.836 710.764 870.974 L 710.202 869.119 C 704.921 867.78 704.377 868.236 703.883 862.848 C 705.823 859.32 705.761 860.218 710.032 857.941 L 710.332 856.128 C 707.635 855.994 707.258 855.952 704.64 855.312 C 703.238 851.654 703.402 850.542 705.517 847.647 C 708.374 846.906 708.197 847.424 710.08 845.734 L 707.354 842.55 L 707.673 840.092 C 710.379 835.915 713.593 834.586 717.921 832.002 C 728.862 831.63 745.888 828.709 750.268 841.497 L 748.472 843.925 L 748.846 845.328 C 752.876 848.127 755.091 851.704 752.321 856.505 L 747.711 857.049 L 747.997 858.504 L 752.437 860.26 C 753.499 863.174 753.143 862.838 752.936 866.169 C 751.188 868.986 751.851 868.076 747.593 869.216 L 747.238 870.961 C 749.535 871.887 749.925 871.883 752.374 872.216 C 753.482 875.276 754.357 879.173 752.445 882.06 C 750.5 882.639 750.486 882.551 748.704 883.476 C 750.385 885.598 752.802 890.093 754.65 890.66 C 756.233 887.455 777.757 822.134 777.761 819.599 C 775.775 818.904 775.34 818.885 773.298 818.728 L 771.364 818.589 C 770.098 816.922 769.908 817.232 770.23 815.627 C 774.685 793.42 822.036 809.858 833.627 797.927 C 838.684 792.721 837.425 790.559 837.485 784.142 z"/>

<path transform="translate(0,0)" fill="rgb(250,212,143)" d="M 438.97 883.467 C 448.685 904.455 453.375 921.935 473.434 935.431 C 469.605 937.385 467.401 934.837 462.206 935.639 C 463.108 940.917 465.939 939.588 466.965 945.213 C 460.815 946.515 454.721 941.756 450.257 938.287 C 453.727 942.788 455.731 945.903 460.272 949.38 C 460.509 951.607 460.675 952.899 461.135 955.085 C 465.086 960.051 466.497 962.207 469.734 967.598 C 472.823 968.997 476.407 970.057 477.944 972.865 C 474.641 975.782 464.952 972.392 460.95 971.066 C 473.236 986.373 473.196 987.078 490.867 994.442 C 488.008 1004.4 466.315 997.325 460.023 994.911 C 470.738 1009.57 480.404 1018.67 496.053 1027.77 C 491.872 1027.37 476.843 1025.29 474.054 1026.71 C 476.617 1036.5 497.376 1042.58 506.413 1042.98 L 507.281 1043.94 C 505.442 1050.2 497.01 1048.6 495.028 1052.43 C 496.952 1056.15 497.319 1055.38 496.776 1058.7 C 488.47 1064.23 481.898 1058.4 473.087 1059.52 L 472.865 1060.71 L 475.486 1063.33 C 473.058 1064.47 474.021 1064.09 470.975 1063.86 L 468.859 1065.07 C 472.584 1067.4 478.273 1071.2 481.966 1073.23 C 508.981 1064.58 555.637 1045.97 582.843 1061.44 C 592.109 1066.71 583.282 1072.64 599.851 1067.4 C 640.832 1054.44 683.984 1058.24 696.449 1106.65 C 698.026 1112.77 696.173 1118.84 692.175 1124.03 C 676.55 1140.38 650.615 1158.73 631.171 1170.27 C 622.242 1175.58 610.634 1179.21 601.945 1184.33 C 623.818 1199.69 662.652 1215.41 671.475 1242.93 C 673.477 1249.17 667.901 1253.25 663.56 1256.44 C 642.43 1232.81 616.133 1211.34 584.68 1203.23 C 581.793 1217.78 575.49 1226.43 569.911 1240.04 C 566.507 1248.34 562.869 1260.93 558.854 1268.39 C 553.487 1269.28 546.633 1262.37 546.979 1257.91 C 548.578 1237.32 561.926 1214.63 566.97 1194.72 C 556.656 1185.39 551.614 1181.39 548.994 1167.18 C 560.459 1164.81 572.131 1163.06 582.135 1156.72 L 606.319 1094.35 C 598.848 1098.09 590.732 1103.92 583.744 1106.4 C 571.255 1110.83 567.648 1089.61 571.472 1082.31 C 571.946 1081.42 572.421 1080.52 572.895 1079.63 C 563.302 1078.74 527.377 1088.41 518.818 1094.33 C 516.088 1098.72 518.318 1110.39 516.002 1114.69 C 511.511 1123.03 506.679 1131.69 502.343 1140.12 C 513.486 1138.33 545.374 1131.46 553.691 1135.49 L 554.385 1138.23 C 535.971 1159.07 507.259 1162.91 487.835 1174.04 C 482.165 1183.77 478.165 1195.5 473.746 1206.1 L 472.851 1206.88 C 471.262 1210.75 469.604 1216.03 468.072 1219.4 C 461.987 1237.1 457.7 1259.76 453.696 1278.45 C 450.19 1277.48 442.172 1275.15 440.825 1272.19 C 433.161 1255.32 455.006 1201.97 456.155 1188.63 C 453.932 1189.38 450.092 1190.71 448.007 1189.46 C 442.217 1185.99 439.215 1172.07 437.519 1165.71 C 447.947 1159.07 458.979 1154.54 470.011 1148.83 C 474.047 1132.99 478.573 1120.27 484.038 1104.92 C 475.445 1108.48 469.142 1113 459.901 1116.36 C 454.03 1106.65 451.312 1101.06 451.323 1089.73 L 451.335 1088.36 C 445.539 1087.77 408.409 1098.97 402.8 1102.73 C 403.547 1104.16 405.569 1108.13 405.755 1109.51 C 407.03 1118.95 394.361 1140.76 389.679 1148.9 C 409.014 1144.56 424.661 1140.09 444.112 1143.7 C 427.189 1169.48 397.806 1171.72 374.689 1184.65 L 373.4 1185.38 C 369.526 1192.27 367.345 1199.49 364.167 1206.54 C 351.206 1235.27 346.597 1263.87 340.214 1294.5 C 334.992 1292.66 329.707 1290.87 325.809 1286.98 C 320.047 1273.16 338.141 1214.49 342.876 1197.93 L 332.121 1204.2 C 326.027 1194.98 323.538 1189.34 319.783 1179.05 C 328.416 1172.73 343.893 1167.05 355.038 1160.19 L 371.453 1112.57 C 362.821 1116.46 355.675 1120.84 346.438 1124.7 C 342.473 1117.68 339.581 1106.47 337.193 1098.48 C 363.816 1079.34 403.586 1067.51 435.402 1061.23 L 438.725 1052.68 C 421.604 1060.78 408.959 1058.99 390.386 1062.01 C 397.588 1059.06 406.524 1053.95 413.021 1049.62 C 409.874 1049.14 406.999 1048.42 403.916 1048.76 C 393.062 1067.85 381.39 1051.88 370.167 1056.01 C 370.471 1059.18 370.678 1059.51 369.934 1062.67 C 367.557 1064.63 367.568 1064.36 364.415 1064.53 C 359.938 1061.56 363.301 1061.83 359.776 1056.57 C 355.941 1056.18 332.62 1059.73 323.803 1059.95 C 331.23 1057.22 336.818 1055.5 342.597 1049.86 L 342.207 1048.81 C 336.732 1049 327.289 1051.25 321.603 1052.43 C 336.966 1045.76 341.371 1041.04 349.108 1026.73 C 342.623 1029.95 339.192 1031.12 332.292 1033.42 C 336.965 1029.44 347.245 1020.38 348.771 1014.57 C 344.738 1013.18 342.094 1015.7 336.456 1014.68 C 337.12 1012.04 348.87 1006.25 351.778 1000.05 C 348.669 998.117 349.582 1002.12 344.737 1001.59 L 349.322 995.468 C 347.001 993.308 347.237 997.741 342.79 997.052 C 342.65 994.24 350.583 987.184 351.984 980.561 L 350.856 979.756 L 344.216 981.612 L 343.54 981.011 C 345.905 978.121 352.676 970.501 352.942 967.434 L 348.659 968.786 C 348.819 967.45 356.558 960.002 358.591 955.438 C 355.847 957.211 354.827 958.108 351.605 958.902 C 351.153 956.412 354.437 952.661 356.228 949.922 C 357.839 946.291 359.428 942.519 361.203 938.98 C 363.755 944.497 365.812 948.888 368.804 954.141 C 371.379 958.662 379.94 969.199 381.192 972.948 C 378.899 973.437 378.447 973.329 376.072 973.265 C 378.37 974.493 379.545 975.147 381.436 976.929 L 381.321 979.052 C 378.624 980.701 376.595 979.41 373.717 978.067 C 371.588 985.042 387.107 996.094 392.514 1000.31 C 386.416 998.607 380.082 996.932 374.039 995.12 C 378.39 1000.16 390.771 1011.02 391.167 1015.03 C 387.105 1017.52 380.564 1015 376.199 1013.75 C 383.472 1021.7 391.323 1025.7 396.443 1031.77 C 391.4 1033.03 388.42 1030.45 385.213 1032.4 C 390.2 1040.08 409.855 1053.97 415.647 1040.56 C 414.298 1039.15 413.585 1038.7 412.032 1037.5 C 409.058 1036.55 410.037 1037.43 408.226 1035.43 C 409.891 1030.82 414.925 1023.82 417.828 1018.8 C 414.224 1019.98 407.927 1022.03 404.359 1020.44 C 406.741 1015.51 412.666 1012.21 416.071 1007.83 C 418.142 1005.17 420.038 1001.78 421.734 998.843 C 416.374 1000.15 405.09 999.455 398.222 999.867 C 407.511 996.268 420.14 989.601 425.115 980.472 L 424.571 979.316 C 421.37 980.584 421.828 980.827 418.642 980.688 C 418.131 977.743 423.787 969.09 425.648 965.837 C 422.099 968.828 416.368 974.156 411.837 974.097 C 413.221 968.241 420.424 960.402 423.55 954.771 C 425.962 950.427 427.944 946.208 430.05 941.719 C 422.88 946.478 419.823 947.119 411.691 949.466 C 420.579 939.9 422.879 936.318 428.762 924.576 C 425.169 927.209 425.118 927.262 421.002 928.919 C 420.869 927.523 430.112 918.781 431.772 915.904 C 433.835 912.329 434.659 909.978 436.059 906.189 C 430.067 911.586 426.359 914.45 419.585 918.639 C 430.011 903.748 433.205 900.744 438.97 883.467 z"/>

<path transform="translate(0,0)" fill="rgb(245,202,133)" d="M 462.078 1198.09 C 462.625 1195.43 463.327 1195.36 465.479 1193.48 C 467.341 1199.43 468.746 1202.04 472.851 1206.88 C 471.262 1210.75 469.604 1216.03 468.072 1219.4 C 465.644 1215.44 465.259 1216.88 462.886 1213.94 C 462.264 1210.89 461.547 1208.05 460.792 1205.04 L 462.078 1198.09 z"/>

<path transform="translate(0,0)" fill="rgb(245,202,133)" d="M 358.591 955.438 C 355.847 957.211 354.827 958.108 351.605 958.902 C 351.153 956.412 354.437 952.661 356.228 949.922 C 357.531 951.2 358.576 952.063 360.153 952.987 C 359.606 953.96 359.334 954.669 358.591 955.438 z"/>

<path transform="translate(0,0)" fill="rgb(245,202,133)" d="M 626.955 1159.1 C 634.232 1155.39 647.731 1147.82 654.778 1145.23 C 652.961 1148.4 650.04 1152.92 646.054 1153.53 C 642.061 1156.92 639.219 1159.17 634.032 1160.57 L 633.374 1160.98 C 630.488 1161.09 629.606 1160.34 626.955 1159.1 z"/>

<path transform="translate(0,0)" fill="rgb(245,202,133)" d="M 346.967 1214 C 348.513 1209.26 351.511 1203.38 355.884 1200.76 C 357.747 1204.47 351.555 1226.9 348.489 1229.17 C 347.191 1227.21 346.052 1225.09 344.359 1223.57 C 346.231 1221.27 346.47 1217.14 346.967 1214 z"/>

<path transform="translate(0,0)" fill="rgb(250,212,143)" d="M 1229.27 947.818 C 1233.31 948.005 1236 947.678 1238.57 950.369 C 1238.46 955.603 1237.88 955.564 1242.33 957.093 L 1243.88 956.313 C 1244.24 953.761 1244.34 952.954 1245.1 950.51 C 1248.73 950.033 1251.05 950.916 1253.39 953.798 C 1254.23 957.274 1254.47 961.738 1258.39 962.501 C 1259.73 959.967 1259.96 959.614 1261.74 957.371 L 1264.13 957.278 C 1266.45 958.755 1267.61 959.145 1268.97 961.491 C 1268.12 963.594 1267.75 964.736 1267.13 966.921 C 1268.58 968.981 1267.62 968.339 1269.96 968.93 C 1271.73 966.99 1272.23 966.004 1274.67 965.19 C 1277.67 966.498 1277.79 967.245 1279.67 969.937 C 1279.57 976.035 1277.21 972.144 1276.18 977.944 C 1281.95 984.102 1279.4 977.293 1285.19 977.497 C 1288.19 980.704 1289.55 982.171 1288.98 986.701 C 1287.09 988.5 1286.06 989.149 1285.03 991.518 L 1285.87 993.14 C 1292.02 993.723 1299.12 995.412 1295.38 1003.72 L 1289.93 1003.94 L 1289.11 1005.01 L 1289.73 1007.79 C 1292.59 1010.35 1292.46 1009.57 1297.03 1010.28 L 1298.18 1011.92 C 1298.19 1016.41 1298.84 1015.69 1296.9 1019.07 C 1294.2 1019.74 1293.88 1019.7 1291.49 1021.04 C 1290.84 1024.1 1290.64 1022.71 1291.77 1025.37 C 1293.47 1025.75 1294.72 1026.01 1296.46 1026.28 L 1297.92 1026.49 L 1298.85 1028.38 C 1298.47 1032.43 1298.61 1032.87 1296.49 1036.19 C 1293.1 1037.69 1293.63 1037.08 1289.28 1036.48 C 1287.84 1039.14 1288.12 1037.75 1288.42 1040.79 C 1290.24 1041.82 1290.55 1041.88 1292.54 1042.3 L 1294.31 1042.66 C 1295.68 1046.57 1295.3 1048.02 1292.97 1051.08 C 1290 1052.69 1288.54 1052.33 1285.15 1052.24 L 1283.89 1052.2 C 1282.1 1054.53 1282.42 1053.27 1282.77 1056.08 C 1285.09 1057.88 1285.63 1058.1 1287.35 1060.53 C 1285.71 1064.72 1284.2 1066.25 1280.16 1067.67 C 1277.56 1066.76 1276.93 1066.38 1274.16 1066.22 L 1271.64 1068.73 C 1271.18 1073.67 1274.5 1070.05 1275.13 1075.29 C 1267.56 1086.03 1266.72 1077.48 1262.34 1077.41 L 1261.33 1079.04 C 1262.13 1082.08 1262.37 1082.46 1262.34 1085.68 C 1257.37 1092.23 1253.81 1086.88 1248.88 1087.99 C 1235.74 1107.99 1216.82 1166.7 1211.68 1191.93 C 1208.36 1202.55 1209.5 1220.89 1204.79 1230.64 C 1197.72 1245.29 1182.47 1235.4 1178.7 1223.88 C 1169.58 1196.03 1165.63 1167.12 1158.57 1138.8 C 1152.05 1155.79 1146.22 1169.5 1140.98 1187.17 C 1136.73 1201.5 1131.78 1226.4 1125.92 1239.39 C 1106.42 1230.19 1107.49 1222.19 1112.97 1203.8 C 1122.3 1175.81 1130.58 1144.7 1139.56 1116.42 C 1143.79 1103.12 1148.95 1076.37 1154.93 1065.48 C 1160.03 1065.64 1168.11 1074.96 1173.27 1079.14 C 1183.9 1114.94 1184.69 1140.27 1191.67 1175.6 C 1194.37 1164.57 1196.69 1156.06 1200.74 1145.42 C 1206.72 1129.69 1217.59 1110.82 1223.13 1095.61 C 1218.59 1095.01 1216.08 1094.9 1213.56 1091.77 C 1213.2 1088.89 1213.24 1086.76 1211.64 1084.38 L 1210.02 1084.43 L 1207.82 1089.31 C 1203.91 1091.91 1200.34 1090.33 1198.29 1086.34 C 1198.95 1083.9 1199.21 1083.35 1199.29 1080.85 C 1196.07 1078.93 1197.64 1079.04 1194.56 1079.35 C 1193.58 1082.02 1193.07 1083.25 1191.79 1085.79 C 1181.17 1081.28 1186.41 1074.72 1183.7 1069.71 C 1178.79 1068.69 1182.17 1071.95 1177.09 1073.07 C 1173.35 1070.81 1174.62 1072.29 1172.64 1068.91 C 1172.56 1065.05 1173.63 1063.94 1175.51 1060.77 C 1174.21 1058.3 1175.08 1059.36 1172.48 1057.95 C 1169.88 1058.88 1169.78 1059.04 1167.08 1059.18 C 1164.5 1057.24 1162.82 1053.87 1163.56 1050.69 L 1167.87 1050.33 L 1168.98 1048.3 C 1168.39 1044.87 1169.24 1046.12 1166.64 1044.25 C 1162.67 1043.79 1163.86 1044.03 1159.53 1047.27 C 1158.41 1043.42 1156.51 1038.81 1157.39 1035.09 C 1160.14 1033.25 1158.55 1033.9 1162.74 1034.25 L 1163.82 1033.03 L 1163.46 1029.59 C 1160.86 1026.52 1161.44 1030.82 1156.22 1028.25 C 1155.01 1025.07 1154.26 1020.87 1156.52 1018.12 L 1161.44 1018.68 C 1163.54 1016.9 1162.69 1018.03 1163.1 1014.47 C 1161.17 1010.46 1160.08 1015.74 1155.48 1012.64 C 1155.01 1009.35 1156.62 1004.08 1158.53 1001.47 C 1160.61 1001.31 1162.7 1001.2 1164.78 1001.13 C 1166.73 998.945 1166.06 1000.2 1166.26 997.028 C 1163.73 995.731 1163.67 995.737 1161.56 993.863 C 1160.86 990.559 1161.62 986.282 1164.51 984.316 C 1167.07 985.636 1168.19 986.18 1170.96 987.232 C 1174.18 985.504 1173.17 986.736 1174.54 983.83 C 1172.96 980.782 1169.99 979.886 1166.76 978.257 L 1174.93 969.251 C 1177.68 972.224 1178.39 973.85 1181.66 974.153 C 1181.95 966.569 1181.99 961.77 1189.2 957.996 C 1192.7 960.172 1189.24 962.381 1193.11 965.377 C 1195.56 964.325 1196.13 963.234 1197.1 960.983 C 1193.8 954.584 1194.35 952.848 1202.86 952.377 C 1204.09 952.309 1205.54 956.061 1206.26 957.384 L 1209.18 957.744 C 1213.73 954.718 1208.94 954.384 1213.37 949.479 C 1223.05 947.487 1220.16 953.127 1227.34 955.245 C 1229.63 952.588 1228.89 952.202 1229.27 947.818 z"/>

<path transform="translate(0,0)" fill="rgb(250,212,143)" d="M 793.859 1075.25 C 792.45 1071.5 793.646 1072.41 791.009 1071.2 L 786.674 1072.82 C 781.534 1070.19 780.888 1064 785.915 1059.93 C 786.024 1056.58 786.43 1058.04 785.036 1055.3 C 780.634 1055.63 780.53 1056.38 777.311 1054.64 C 775.659 1051.59 775.997 1051.01 776.09 1047.54 C 778.314 1045.34 778.402 1045.72 781.569 1044.71 C 782.706 1041.66 782.578 1043.24 781.466 1039.79 C 774.413 1038.66 773.721 1038.09 773.284 1031.06 L 774.544 1029.23 L 776.568 1029.05 C 778.745 1028.84 779.152 1028.82 781.241 1027.99 L 782.085 1025.99 C 781.424 1024.41 766.907 1019.19 778.58 1011.68 C 781.652 1012.75 781.377 1012.89 784.548 1013.18 C 786.329 1010.79 785.895 1012.12 785.741 1009.02 L 784.241 1007.67 C 782.468 1006.05 782.248 1005.82 781.013 1003.68 C 781.23 1000.02 781.482 1000.08 783.503 997.159 L 785.4 996.528 L 786.733 997.49 C 788.312 998.606 788.664 998.838 790.309 999.685 C 792.609 997.697 791.643 998.857 792.66 995.71 C 791.547 992.825 791.35 992.862 789.305 990.458 C 790.102 986.597 789.37 988.461 792.521 985.062 C 799.347 983.198 796.028 987.576 802.214 985.053 L 802.034 983.931 C 801.42 979.86 801.165 979.463 802.429 975.748 C 805.288 972.816 803.64 973.547 807.32 973.033 L 812.609 976.97 C 815.986 975.758 814.829 976.83 816.402 973.884 L 815.32 968.505 C 817.303 965.993 817.232 966.213 820.257 965.037 C 828.574 967.244 821.849 971.589 830.936 969.953 C 836.071 964.769 828.062 962.47 838.198 960.808 L 840.397 961.96 L 840.921 963.863 C 841.516 965.964 841.568 966.276 842.954 968.037 C 846.371 967.99 844.924 968.549 847.479 966.409 L 848.795 961.411 C 851.539 959.919 854.812 960.397 857.25 962.376 L 857.586 963.732 C 858.028 965.445 858.385 966.528 858.961 968.178 C 862.006 969.763 860.463 969.649 863.565 969.277 C 864.221 967.448 864.812 965.725 865.967 964.148 C 868.907 963.789 870 964.567 872.718 965.733 C 877.047 970.871 872.861 974.332 878.202 975.464 C 882.148 972.544 880.655 972.835 885.035 972.37 C 888.433 973.788 888.336 973.619 890.931 976.556 C 890.008 978.539 889.211 980.533 888.487 982.596 C 889.788 985.664 888.776 984.422 891.883 986.223 C 894.028 984.941 895.283 984.245 897.663 983.503 C 900.386 984.391 900.943 985.955 902.52 988.416 L 902.795 991.038 C 901.269 992.652 900.223 993.676 898.566 995.155 C 898.736 998.086 898.218 996.807 900.36 999.037 C 902.416 998.459 904.434 998.001 906.548 997.698 C 909.393 999.526 911.106 1001.95 911.142 1005.51 C 909.501 1007.41 908.004 1007.72 905.646 1008.71 C 904.903 1011.35 904.894 1010 906.392 1012.82 C 909.288 1013.39 909.62 1013.28 912.615 1013.13 C 915.625 1015.51 916.017 1017.66 915.947 1021.48 C 913.899 1023.55 913.12 1023.6 910.418 1024.68 L 909.685 1026.5 L 910.742 1028.55 C 913.392 1029.01 914.387 1029.05 917.091 1029.14 C 918.806 1032.06 918.735 1036.39 917.078 1039.33 C 914.413 1040.4 914.227 1040.32 911.328 1040.65 C 909.127 1043.36 909.724 1041.86 909.398 1045.28 C 911.37 1046.62 912.992 1047.63 915.044 1048.84 C 916.002 1052.16 915.457 1053.8 912.844 1056.4 L 907.18 1056.16 C 904.927 1058.5 905.629 1057.09 905.42 1060.69 C 909.679 1065.21 912.503 1068.43 906.114 1074 C 901.563 1072.56 900.235 1070.55 897.337 1071.38 C 895.704 1078.32 900.918 1076.47 901.255 1083.11 C 898.88 1084.78 899.808 1084.25 896.876 1084.99 C 894.671 1093.65 893.997 1104.8 892.414 1113.83 C 890.365 1125.53 888.149 1137.18 886.196 1148.89 C 896.805 1153.42 912.953 1155.23 920.712 1160.35 C 913.507 1170.19 898.703 1165.35 882.834 1173.86 C 879.909 1184.74 878.211 1192.91 876.068 1203.89 C 872.978 1194.16 878.297 1189.26 877.138 1181.48 L 875.511 1181.04 C 872.405 1187.13 875.91 1206.42 875.641 1213.99 C 875.154 1227.7 873.016 1239.38 874.664 1253.14 C 852.623 1247.46 852.848 1235.77 854.156 1215.23 C 854.854 1204.26 856.903 1192.39 857.116 1181.51 C 844.464 1185.24 831.746 1188.75 818.968 1192.03 C 814.643 1199.7 791.94 1244.7 788.194 1247.11 C 781.494 1247.05 772.026 1236.78 773.176 1229.34 C 775.117 1216.76 783.127 1206.18 787.795 1194.21 C 786.649 1188.34 784.927 1180.63 784.404 1174.88 C 787.21 1173.76 800.243 1168.71 801.481 1167.23 C 814.685 1151.49 828.564 1125.49 839.635 1108.17 C 836.471 1105.27 835.624 1108.93 833.136 1104.58 L 833.357 1100.81 C 830.722 1098.92 832.149 1099.4 828.938 1099.28 L 828.038 1100.27 C 823.693 1105 819.237 1104.21 814.837 1099.55 C 816.483 1097.12 816.646 1097.49 819.413 1095.81 C 818.354 1092.74 819.141 1094.18 815.97 1091.94 C 812.843 1092.1 812.081 1094.11 809.109 1097.1 C 805.836 1095.48 803.369 1094.77 801.513 1091.72 C 802.983 1086.53 804.69 1090.6 805.773 1085.38 C 803.398 1082.14 804.324 1082.39 801.158 1081.22 C 798.646 1082.75 797.922 1084.21 796.245 1086.6 C 792.986 1086.75 794.396 1087.17 791.799 1085.58 C 790.663 1082.36 790.833 1082.44 790.974 1078.98 L 793.859 1075.25 z"/>

<path transform="translate(0,0)" fill="rgb(245,202,133)" d="M 830.676 1145.99 L 833.474 1142.62 C 836.359 1142.64 835.261 1142.06 837.088 1143.85 C 836.321 1149.21 831.999 1152.83 828.244 1156.78 C 826.117 1156.96 827.073 1157.21 825.354 1156.13 C 823.507 1158.61 823.669 1158.59 821.097 1160.24 C 821.86 1156.4 827.894 1148.85 830.676 1145.99 z"/>

<path transform="translate(0,0)" fill="rgb(250,212,143)" d="M 273.463 1060.74 C 281.344 1061.61 320.684 1093.66 323.582 1102.89 C 340.978 1158.33 291.8 1269.11 238.557 1289.54 C 222.812 1293.51 206.817 1291.01 196.511 1277.4 C 157.671 1226.12 228.009 1087.86 273.463 1060.74 z"/>

<path transform="translate(0,0)" fill="rgb(250,212,143)" d="M 746.547 1063.83 C 759.757 1063.42 759.677 1072.23 767.476 1076.01 C 813.864 1098.47 793.622 1153.53 774.514 1189.22 C 762.386 1211.88 748.096 1233.55 720.475 1245.66 C 681.742 1257.21 666.675 1217.7 673.953 1186.34 C 683.041 1147.17 713.043 1086.9 746.547 1063.83 z"/>

<path transform="translate(0,0)" fill="rgb(250,212,143)" d="M 944.663 1093.09 C 939.353 1098.49 931.175 1108.87 924.198 1109.09 C 920.513 1107.27 916.233 1100.57 915.25 1096.97 C 905.545 1061.49 974.105 1050.98 995.746 1064.79 C 1017.76 1078.83 1029.17 1098.96 1029.23 1123.63 C 1027.23 1149.16 1014.15 1159.96 997.447 1177.39 C 978.335 1197.34 958.199 1213.49 935.726 1229.56 C 933.364 1231.25 923.468 1234.24 920.353 1236.1 C 918.545 1248.7 910.228 1240.67 898.646 1229.09 C 897.308 1224.82 893.599 1216.29 894.346 1212.59 C 897.386 1210.01 899.525 1210.33 903.499 1210.71 C 908.451 1192.26 915.536 1177.38 920.712 1160.35 C 929.363 1141.17 938.106 1113.29 944.663 1093.09 z"/>

<path transform="translate(0,0)" fill="rgb(250,212,143)" d="M 1482.59 1048.1 C 1485.4 1047.95 1491.65 1047.64 1493.82 1048.97 C 1513.04 1060.71 1529.59 1058.38 1520.06 1086.54 C 1515.78 1099.17 1512.41 1108.05 1506.57 1119.3 C 1494.93 1114.6 1492.11 1111.1 1486.11 1100.38 C 1488.51 1091.11 1492.15 1081 1495.23 1071.84 C 1455.64 1094.51 1435.49 1133.73 1421.14 1175.97 C 1418.57 1183.54 1413.46 1200.93 1424.39 1203.44 C 1450.28 1196.99 1478.29 1170.07 1495.29 1150.81 C 1487.59 1151.86 1469.01 1155.88 1462.43 1151.09 C 1456.37 1146.69 1449.54 1137.16 1454.46 1129.44 C 1460.6 1125.31 1478.15 1124.51 1486.24 1123.66 C 1495.83 1122.8 1505.41 1121.86 1514.99 1120.84 C 1538.22 1140.55 1522.23 1152.39 1513.3 1174.31 C 1512.62 1176 1506.65 1187.85 1506.26 1188.09 C 1492.14 1196.82 1490.15 1247.63 1484.68 1255.33 C 1464.88 1254.87 1475.4 1217.27 1477.81 1206.28 C 1462.55 1217.5 1443.12 1233.04 1423.17 1223.89 C 1412.71 1219 1404.73 1210 1401.11 1199.03 C 1387.39 1156.84 1440.65 1062.08 1482.59 1048.1 z"/>

<path transform="translate(0,0)" fill="rgb(250,212,143)" d="M 435.149 1310.34 C 452.976 1307.43 476.485 1305.36 494.755 1303.25 C 532.235 1298.75 569.757 1294.61 607.316 1290.83 C 715.326 1280.25 823.665 1273.38 932.145 1270.2 C 1071.41 1264.58 1210.82 1263.5 1350.15 1266.94 C 1429.49 1268.7 1510.04 1274.53 1588.51 1276.06 L 1588.91 1277.48 C 1582.67 1278.72 1576.72 1277.67 1570.46 1278.19 C 1455.7 1277.31 1340.91 1274.77 1226.16 1276.68 C 1195.39 1277.19 1164.52 1276.61 1133.77 1277.33 C 981.793 1281.06 829.887 1287.2 678.106 1295.75 C 599.285 1300.45 521.35 1307.34 442.938 1312.32 C 438.853 1311.87 438.796 1312.01 435.149 1310.34 z"/>

<path transform="translate(0,0)" fill="rgb(250,212,143)" d="M 1832.64 1050.38 C 1879.82 1044.14 1863.39 1092.02 1846.75 1112.95 C 1844.92 1115.25 1834.98 1131.51 1831.21 1130.1 C 1797.12 1117.41 1816.26 1102.4 1829.62 1083.46 C 1802.5 1092.46 1767.39 1116.87 1746.14 1136.22 C 1767.3 1138.6 1813.95 1149.94 1825.73 1168.3 C 1841.37 1192.66 1796.91 1213.27 1781.08 1221.89 C 1762.58 1231.78 1743.28 1241.45 1722.78 1246 C 1717.39 1241.25 1707.86 1225.51 1705.12 1218.78 C 1738.57 1210.48 1768.95 1195.78 1798.51 1177.79 C 1803.18 1174.95 1806.24 1172.01 1805.85 1166.43 C 1795.53 1151.12 1750.45 1160.79 1737.1 1149.07 C 1724.48 1138 1720.55 1119.45 1733.05 1106.92 C 1754.78 1085.13 1801.69 1052.9 1832.64 1050.38 z"/>

<path transform="translate(0,0)" fill="rgb(250,212,143)" d="M 1341.27 1051.34 C 1379.1 1048.19 1377.84 1079.96 1362.19 1106.27 C 1356.43 1115.95 1341.44 1149.47 1324.02 1116.34 C 1320.68 1109.98 1335.37 1091.93 1340.31 1084.13 C 1317.7 1093.2 1276.15 1118.73 1258.72 1135.74 C 1282.23 1144.18 1320.97 1148.48 1336.05 1170.33 C 1352.11 1193.6 1308.72 1214.64 1293.46 1223.3 C 1272.6 1234.93 1261.55 1240.45 1238.49 1246.56 C 1233.64 1236.94 1229.07 1229.32 1223.52 1220.13 C 1238.55 1214.39 1319.39 1186.73 1315.86 1166.75 C 1306.97 1155.81 1262 1160.92 1249.41 1149.88 C 1239.88 1142.01 1231.63 1121.93 1241.83 1111.31 C 1265.38 1086.78 1307.2 1056.16 1341.27 1051.34 z"/>

<path transform="translate(0,0)" fill="rgb(250,212,143)" d="M 1612.97 1122.06 C 1617.02 1109.85 1634.02 1049.54 1638.76 1043.89 C 1645.37 1041.22 1655.75 1047.81 1656.85 1053.97 C 1659.86 1070.95 1648.31 1100.13 1643.07 1115.99 C 1652.94 1116.5 1662.86 1116.43 1672.04 1120.23 L 1673.55 1121.96 C 1670.18 1128.79 1642.74 1132.27 1634.43 1133.71 C 1630.73 1146.96 1625.05 1158.57 1620.21 1171.28 C 1608.46 1202.14 1597.25 1225.43 1589.86 1258.05 C 1585.69 1254.44 1582.18 1251.61 1578.64 1247.32 C 1583.11 1220.8 1598.21 1171.41 1606.59 1143.88 C 1594.47 1148.52 1579.93 1154.15 1567.71 1158.07 C 1561.5 1173.46 1555.75 1189.04 1550.46 1204.78 C 1547.94 1212.46 1543.6 1233.15 1537.58 1236.81 C 1521.06 1238.32 1534.12 1196.93 1534.96 1188.37 C 1535.37 1184.12 1537.45 1174.77 1538.73 1170.88 L 1537.47 1174.09 C 1534.63 1164.13 1532.01 1154.1 1529.62 1144.02 C 1535.64 1142.53 1542.25 1140.75 1548.26 1139.51 C 1554.07 1121.19 1559.87 1102.86 1565.58 1084.5 C 1567.43 1078.53 1571.26 1062.04 1573.51 1057.42 C 1580.67 1054.19 1588.75 1059.35 1591.76 1066 C 1598.93 1081.85 1579.59 1117.21 1581.11 1129.81 L 1587.47 1127.47 C 1595.84 1125.53 1604.51 1123.53 1612.97 1122.06 z"/>

<path transform="translate(0,0)" fill="rgb(245,202,133)" d="M 1581.11 1129.81 L 1587.47 1127.47 C 1592.2 1128.55 1593.72 1128.66 1598.55 1128.16 L 1598.62 1128.93 C 1592.9 1131.48 1584.32 1134.05 1578.06 1134.29 L 1576.69 1133.66 L 1577.06 1132.4 L 1580.88 1131.08 L 1581.11 1129.81 z"/>

<path transform="translate(0,0)" fill="rgb(245,202,133)" d="M 1596.86 1135.83 C 1599.23 1134.91 1600.95 1135.41 1603.5 1135.74 L 1603.97 1136.82 C 1599.83 1139.96 1582.01 1149.65 1577.83 1149.24 C 1576.31 1147.25 1576 1146.46 1574 1145.01 C 1578.33 1139.66 1590.09 1137.6 1596.86 1135.83 z"/>

<path transform="translate(0,0)" fill="rgb(250,212,143)" d="M 1601.81 840.691 C 1603.84 842.817 1607.49 850.534 1609.03 853.44 C 1617.73 869.882 1621.77 877.271 1635.76 888.909 C 1628.98 888.073 1626.1 887.077 1619.6 885.064 L 1632.42 897.089 C 1626.58 895.516 1620.59 892.947 1614.94 890.7 C 1619.86 897.334 1621.25 899.285 1628.19 903.821 C 1631.99 903.916 1639.19 903.327 1641.57 906.282 C 1635.98 910.82 1628.16 908.799 1621.99 907.093 C 1626.28 913.702 1632.03 918.393 1634.79 923.799 L 1633.68 924.784 C 1628.23 924.106 1626.05 922.566 1621.19 920.065 C 1625.29 927.416 1630.92 934.757 1638.67 938.38 C 1641.66 939.78 1644.64 940.599 1645.99 942.985 C 1638.78 951.001 1630.86 945.414 1624.92 946.44 C 1624.54 955.128 1649.05 969.02 1652.87 976.219 C 1648.57 978.097 1638.04 973.716 1633.51 972.076 C 1644.89 986.946 1649.69 990.939 1668.09 994.936 C 1665.02 996.714 1660.49 998.594 1657.17 1000.09 L 1666 1006.28 C 1662.51 1007.62 1658.22 1009.3 1654.46 1009.47 C 1650.45 1009.66 1642.99 1008.02 1639.42 1009.59 C 1641.14 1012.32 1640.97 1011.63 1641.87 1014.59 C 1636.62 1015.94 1620.61 1010.93 1614.19 1009.43 L 1615.86 1025 L 1602.2 1024.87 L 1603.8 1012.98 C 1587.14 1019.53 1572.24 1018.55 1554.8 1017.78 C 1562.01 1013.86 1570.13 1009.91 1576.43 1004.77 L 1576.33 1003.82 C 1569.62 1005.16 1553.19 1007.98 1546.91 1006.38 L 1546.76 1005.22 C 1567.94 994.674 1570.89 992.196 1587.01 973.731 C 1581.92 973.892 1571.71 975.72 1569.36 970.91 C 1571.58 965.899 1580.76 959.927 1586.34 950.014 L 1586.86 949.06 C 1578.85 950.079 1573.94 949.954 1565.81 949.834 C 1578.58 940.689 1583.06 937.151 1593.83 925.713 C 1588.28 928.668 1584.91 929.925 1579.05 932.137 C 1583.52 926.047 1587.85 919.544 1592.13 913.292 C 1588.78 916.339 1584.92 920.642 1580.45 920.883 C 1579.88 917.29 1592.08 897.511 1594.78 892.205 C 1588.51 895.881 1585.84 896.931 1579.02 899.547 C 1582.21 895.92 1591.65 883.088 1592.3 878.65 C 1588.68 878.652 1589.63 879.366 1587.62 877.744 C 1593.91 870.503 1596.35 868.129 1600.2 859.5 C 1595.65 862.766 1590.16 866.146 1585.39 869.229 C 1593.77 858.988 1597.33 852.968 1601.81 840.691 z"/>

<path transform="translate(0,0)" fill="rgb(245,202,133)" d="M 1187.85 731.633 C 1206.29 728.21 1225.14 734.972 1237.19 749.332 C 1249.25 763.693 1252.65 783.429 1246.08 800.993 C 1239.52 818.556 1224.01 831.229 1205.49 834.163 C 1177.38 838.618 1150.91 819.653 1146.08 791.602 C 1141.26 763.551 1159.87 736.83 1187.85 731.633 z"/>

<path transform="translate(0,0)" fill="rgb(245,202,133)" d="M 1194.93 736.242 L 1198.58 736.478 L 1198.64 737.339 L 1198.73 738.775 C 1199 742.564 1199.71 744.51 1197.77 747.741 L 1196.3 747.626 C 1194.05 743.861 1194.74 740.76 1194.93 736.242 z"/>

<path transform="translate(0,0)" fill="rgb(250,212,143)" d="M 1209.79 762.793 L 1210.56 763.483 C 1211.32 767.103 1207.21 778.527 1206.87 785.84 C 1201.14 790.924 1190.55 800.44 1184.39 804.177 L 1183.24 802.509 C 1183.84 794.797 1186.33 783.481 1188.6 776.056 C 1196.28 771.689 1202.42 767.706 1209.79 762.793 z"/>

<path transform="translate(0,0)" fill="rgb(250,212,143)" d="M 1153.35 781.522 C 1159.07 780.803 1163.25 778.94 1166.6 784.119 C 1161.73 785.597 1156.88 785.639 1153.35 781.522 z"/>

<path transform="translate(0,0)" fill="rgb(250,212,143)" d="M 1662.2 1060.55 C 1701.8 1044.22 1758.86 1035.44 1801.72 1034.28 C 1809.43 1034.07 1812.09 1040.99 1810.57 1047.71 C 1805.96 1051.81 1753.21 1060.7 1743.16 1066.45 C 1742.3 1066.94 1735.53 1069.47 1735.49 1069.59 C 1733.92 1073.82 1734.64 1079.68 1732.41 1084.12 C 1724.98 1098.9 1715.29 1128.41 1706.74 1141.54 L 1705.07 1140.68 C 1702.82 1143.27 1705.01 1148.11 1701.01 1155.29 C 1700.19 1155.01 1699.36 1154.73 1698.54 1154.45 C 1699.12 1160.63 1698.73 1159.75 1694.81 1164.02 C 1696.24 1169.48 1695.37 1170.96 1691.34 1174.72 L 1688.63 1174.79 C 1687.4 1178.1 1690.03 1170.63 1688.6 1177.45 C 1684.44 1197.23 1678.35 1219.6 1672.17 1239.09 C 1671.08 1242.51 1669.45 1242.74 1667.72 1243.3 C 1643.55 1237.28 1677.29 1157.3 1681.9 1141.97 C 1688.66 1119.52 1695.07 1096.96 1705.31 1075.85 C 1677.62 1082.02 1673.29 1096.44 1662.2 1060.55 z"/>

<path transform="translate(0,0)" fill="rgb(245,202,133)" d="M 1688.63 1174.79 C 1690.87 1168.45 1688.33 1164.99 1689.41 1157.66 L 1690.75 1156.92 C 1693.18 1158.66 1693.68 1161.13 1694.81 1164.02 C 1696.24 1169.48 1695.37 1170.96 1691.34 1174.72 L 1688.63 1174.79 z"/>

<path transform="translate(0,0)" fill="rgb(250,212,143)" d="M 1123.49 1045.94 C 1131.35 1047.03 1139.39 1050.58 1143.05 1058.03 C 1147.51 1067.1 1139.18 1079.58 1135.63 1088.01 L 1111.81 1143.47 C 1110.59 1146.4 1101.54 1168.86 1100.72 1169.67 L 1099.87 1168 L 1098.84 1168.36 C 1095.87 1186.44 1088.57 1215.33 1083.81 1233.49 C 1082.74 1237.26 1082.5 1239.01 1079.07 1240.81 C 1060.05 1238.49 1069.8 1199.09 1073.1 1188.64 C 1080.83 1164.14 1107.47 1061.03 1123.49 1045.94 z"/>

<path transform="translate(0,0)" fill="rgb(250,212,143)" d="M 1402.83 1043.9 C 1415.12 1045.44 1427.92 1055.09 1422.35 1068.94 C 1405.58 1110.61 1382.18 1151.05 1371.66 1194.97 C 1368.87 1206.62 1366.03 1218.19 1363.25 1229.81 C 1361.49 1234.02 1362.91 1232.82 1359.68 1234.46 C 1356.94 1234.17 1351.31 1231.62 1350.45 1229.16 C 1343.27 1208.79 1355.25 1174.75 1360.41 1155.44 C 1368.01 1128.47 1376.8 1101.76 1386.88 1075.6 C 1390.81 1065.39 1394.45 1050.79 1402.83 1043.9 z"/>

<path transform="translate(0,0)" fill="rgb(250,212,143)" d="M 646.215 844.684 C 656.956 854.983 667.633 865.52 679.008 875.093 C 682.071 872.53 685.257 869.734 688.502 867.443 C 691.267 872.805 697.785 878.618 702.409 882.748 C 702.428 886.386 702.982 889.469 700.993 892.299 C 695.415 894.131 689.932 887.667 686.124 883.812 C 665.576 899.679 636.419 921.091 614.346 934.66 C 627.797 920.063 653.644 897.896 669.327 883.774 C 660.018 878.529 652.318 871.206 644.355 864.074 C 599.827 896.628 555.605 929.598 511.694 962.979 L 512.976 956.461 C 545.123 928.641 577.613 901.22 610.44 874.204 C 620.246 866.146 636.847 851.296 646.215 844.684 z"/>

<path transform="translate(0,0)" fill="rgb(250,212,143)" d="M 1692.88 955.501 C 1694.84 958.657 1704.04 974.314 1704.47 976.117 C 1702.53 977.058 1703.15 976.814 1701.43 977.474 L 1700.38 977.866 L 1700.67 979.463 C 1702.88 981.504 1703.63 981.444 1706.55 982.062 L 1707.47 982.248 L 1708.16 983.382 C 1706.35 984.03 1705.3 984.193 1703.42 984.473 C 1703.59 988.128 1706.36 986.277 1709.11 991.393 L 1703.59 992.062 C 1703.83 994.938 1709.28 995.588 1711.34 999.993 L 1710.49 1001.17 C 1707.38 1000.45 1708.28 1000.16 1705.63 1000.91 C 1706.5 1007.89 1710.01 1006.78 1715 1010.62 L 1714.95 1011.75 C 1711.97 1011.89 1710.21 1011.38 1708.34 1012.87 C 1711.4 1017.21 1714.84 1016.74 1719.42 1021.4 C 1715.55 1024.99 1714.45 1021.07 1711.27 1024.05 L 1712.85 1027.11 L 1712.05 1027.86 C 1696.96 1023.48 1705.86 1025.97 1697.6 1030.66 C 1693.02 1022.02 1684.06 1026.5 1675.07 1027.73 C 1678.82 1025.4 1680.5 1024.47 1683.71 1021.53 C 1680.89 1021.72 1679.95 1021.94 1677.17 1021.37 C 1678.54 1017.66 1682.81 1017.23 1685.97 1011.78 L 1685.49 1010.3 C 1683.3 1011.25 1681.59 1011.94 1679.34 1012.74 C 1680.33 1007.66 1686.73 1005.79 1685.82 1000.35 C 1683.17 1000.23 1681.39 1000.98 1678.86 1001.75 L 1678.54 1000.51 C 1681.44 997.725 1687.1 993.227 1686.99 989.195 L 1683.79 989.536 C 1683.18 986.419 1686.2 987.911 1687.3 982.537 L 1683.83 982.589 C 1687.17 974.085 1689.77 964.385 1692.88 955.501 z"/>

<path transform="translate(0,0)" fill="rgb(245,202,133)" d="M 678.682 1025.43 C 699.526 1022.82 736.909 1029.83 756.596 1037.83 C 749.912 1037.73 730.043 1034.07 721.918 1033.27 C 693.217 1030.45 672.069 1032.36 644.193 1037.32 C 620.038 1042.17 600.183 1048.6 576.687 1055.96 C 608.447 1037.51 642.375 1028.6 678.682 1025.43 z"/>

<path transform="translate(0,0)" fill="url(#Gradient3)" d="M 1385.67 1012.43 C 1416.7 1010.42 1454.46 1018.76 1478.83 1038.94 C 1456.57 1028.59 1445.24 1025.45 1421.23 1020.91 C 1385.27 1015.69 1356.35 1018.7 1321.74 1027.28 C 1335.57 1017.64 1369.12 1013.49 1385.67 1012.43 z"/>

<path transform="translate(0,0)" fill="url(#Gradient2)" d="M 658.744 1006.4 C 675.404 1003.37 701.801 1007.56 717.01 1015.83 C 695.271 1011.04 669.903 1011.1 647.982 1014.2 C 634.632 1014.9 609.263 1022.56 595.448 1026.22 C 615.689 1014.23 635.629 1008.98 658.744 1006.4 z"/>

<path transform="translate(0,0)" fill="url(#Gradient1)" d="M 1382.79 987.4 C 1411.6 987.435 1432.33 994.078 1455.28 1010.93 C 1438.01 1004.83 1433.96 1000.36 1413.25 996.191 C 1383.62 990.942 1361.22 992.686 1332.31 998.44 C 1348.49 989.542 1364.83 988.572 1382.79 987.4 z"/>

<path transform="translate(0,0)" fill="rgb(245,202,133)" d="M 460.272 949.38 C 468.634 951.178 477.658 952.939 485.873 955.121 C 475.18 957.207 472.128 957.161 461.135 955.085 C 460.675 952.899 460.509 951.607 460.272 949.38 z"/>

<path transform="translate(0,0)" fill="rgb(245,202,133)" d="M 485.385 979.801 C 494.467 971.886 503.665 964.105 512.976 956.461 L 511.694 962.979 C 505.772 967.52 491.785 976.524 485.385 979.801 z"/>

<path transform="translate(0,0)" fill="rgb(245,202,133)" d="M 412.032 1037.5 C 413.585 1038.7 414.298 1039.15 415.647 1040.56 C 411.928 1042.74 411.053 1043.47 406.968 1044.5 C 403.349 1043.61 404.478 1044.65 402.859 1042.05 L 404.211 1039.65 C 407.297 1037.42 408.254 1037.67 412.032 1037.5 z"/>

<path transform="translate(0,0)" fill="rgb(245,202,133)" d="M 416.022 1312.37 C 422.036 1311.97 429.073 1311.02 435.149 1310.34 C 438.796 1312.01 438.853 1311.87 442.938 1312.32 L 417.747 1314.5 L 415.679 1313.69 L 416.022 1312.37 z"/>

<path transform="translate(0,0)" fill="rgb(245,202,133)" d="M 376.041 982.158 C 382.423 983.066 387.953 981.446 392.119 984.683 C 387.017 987.269 380.209 986.103 376.041 982.158 z"/>

</g>
</svg>